<svg transform="scale(1)" version="1.1" id="zB64c8oyVl" xmlns="http://www.w3.org/2000/svg" xmlns:xlink="http://www.w3.org/1999/xlink" x="0px" y="0px" viewBox="0 0 500 500" xml:space="preserve" class="pbimage_pbimage__wrapper__image__0LEis false"><title>Snow</title><style type="text/css"> .st0{fill:#68E1FD;} .st1{opacity:0.32;fill:#606060;enable-background:new;} .st2{fill:#EFDBD3;} .st3{fill:#FDF5F1;} .st4{fill:#EFD3C7;} .st5{fill:#185543;} .st6{fill:#4A8E7B;} .st7{fill:#FFFFFF;} .st8{fill:#EAE8E5;} .st9{fill:#ED7B2E;}
 .st9{fill:#ED7B2E;}
 .st8{fill:#EAE8E5;}
 .st7{fill:#FFFFFF;}
 .st6{fill:#4A8E7B;}
 .st5{fill:#185543;}
 .st4{fill:#EFD3C7;}
 .st3{fill:#FDF5F1;}
 .st2{fill:#EFDBD3;}
 .st1{fill:#606060;}
 .st0{fill:#68E1FD;}</style><g id="snowy_field"><path class="st0" d="M485.3,262.5L466.7,275L249.4,148.8c-3.4-1.9-8.4-0.6-11.7,1.4L17.8,277c-6.8,4.2-0.8,10.6,6.2,14.6
		l219.1,129.5c9,5,20,5,28.9-0.2l208.7-119.1c2.7-1.7,4.4-4.6,4.6-7.7h0.1V262.5z" fill="#68E1FD"></path><path class="st1" d="M485.3,262.5L466.7,275L249.4,148.8c-3.4-1.9-8.4-0.6-11.7,1.4L17.8,277c-6.8,4.2-0.8,10.6,6.2,14.6
		l219.1,129.5c9,5,20,5,28.9-0.2l208.7-119.1c2.7-1.7,4.4-4.6,4.6-7.7h0.1V262.5z" fill="#606060"></path><polygon class="st2" points="14.8,252.1 14.8,281.5 55.2,270.6 	" fill="#EFDBD3"></polygon><path class="st2" d="M199.4,365.9v29.6L23.9,291.6c0,0-7.9-3.8-9.1-10.1s30.9-9.8,30.9-9.8L199.4,365.9z" fill="#EFDBD3"></path><path class="st0" d="M243.1,391.7L23.9,262.2c-7-3.9-13-10.4-6.2-14.6l219.9-126.8c3.3-2,8.3-3.4,11.7-1.4l230,133.6
		c7,4,8.2,15.4,1.2,19.4L271.9,391.5C263,396.7,252,396.8,243.1,391.7z" fill="#68E1FD"></path><path class="st0" d="M243.1,391.7L23.9,262.2c-7-3.9-13-10.4-6.2-14.6l219.9-126.8c3.3-2,8.3-3.4,11.7-1.4l230,133.6
		c7,4,8.2,15.4,1.2,19.4L271.9,391.5C263,396.7,252,396.8,243.1,391.7z" fill="#68E1FD"></path><path class="st3" d="M264.9,339.5c9.1-8.9,16.1-19.5,24.6-28.9c7.7-8.4,17.2-15,27.7-19.3c18.5-7.6,45.6-10.5,54.3-31.3
		c7-16.7,2.6-36.4,3.8-53.9c0.3-4.2,0.9-8.4,1.9-12.5l-127.8-74.2c-3.4-2-8.4-0.6-11.7,1.4L17.8,247.6c-6.8,4.2-0.8,10.6,6.2,14.6
		l175.4,103.7C224.2,366.7,246.6,357.5,264.9,339.5z" fill="#FDF5F1"></path></g><g id="tree2"><path class="st4" d="M201.6,161.3c0,0-12.6,7.7-7.6,14.1s19,1.1,25.8,6.5s13.8,2.7,25,0s8.5-1,25.1-3.9s35.2-10.2,34.7-18.5
		s-29-15.6-36.8-15.6"></path><path class="st5" d="M280.4,158c-7.1-8.3-13.3-17.4-18.7-26.9c-2.3-4.1-8.4-1-7.2,3.1c-0.9,0.1-1.7,0.5-2.4,1.1
		c-1.3-1.3-3.2-1.5-4.9-0.7c-0.3-2.3-2.4-3.9-4.7-3.7c-0.5,0.1-0.9,0.2-1.4,0.4c-0.6-0.3-1.2-0.5-1.9-0.5c-1.3-1.7-3.8-2.1-5.6-0.9
		c-2.1-1.3-5.2-0.9-5.7,2.1c0,0.2-0.1,0.4-0.1,0.6c0.3-4-5.5-5.6-7.4-2.2l-0.2-0.1c-1.3-2.4-5.2-3.4-6.9-0.3
		c-5.5,9.5-11.6,18.6-18.5,27.2c-3.2,3.9,2.4,9.6,5.6,5.6c1.5-2,3.1-3.9,4.5-5.9l-3.6,8.2c-2,4.6,4.8,8.7,6.9,4l5.8-13.3
		c-1.2,4.9-2.8,10.4-1.9,15c0.5,1.7,2,2.9,3.8,2.9h0.4c0.6-0.1,1.2-0.2,1.8-0.5c1.8,2,5.7,2.1,6.8-1.1c2.2,0.9,4.8-0.1,5.7-2.3
		c0.2-0.4,0.3-0.8,0.3-1.2c0.1-1,0.2-1.9,0.3-2.9c0,2.8,0,5.5,0,8.2c0,4.7,6.7,5.1,7.8,1.1c1.1-0.1,2-0.6,2.7-1.4
		c0.3,0.8,0.8,1.5,1.4,2.1c1.4,1.3,4.2,1.8,5.6,0l0.3-0.4c0,0,0.1-0.1,0.1-0.1c2.4,1.5,6.8-0.6,6.2-4.5c-0.1-0.6-0.2-1.2-0.3-1.8
		c0.2,0.5,0.4,1.1,0.5,1.6c1.6,4.8,9.2,2.8,7.7-2.1l-0.1-0.4c2.5,0.2,5.2-1.7,4.2-4.8v-0.1c0.9,1.4,1.9,2.8,2.8,4.2
		c2.6,3.8,8.4,0.9,7.4-2.8C280.5,164.6,282.8,160.8,280.4,158z"></path><path class="st6" d="M280.2,129.6c-10.3-1.9-19.9-6.8-27.4-14.1c-2.5-2.4-5.9-0.6-6.6,1.9c-1.6-1.1-3.7-0.8-4.9,0.7
		c-1.5-0.4-3,0-4.1,1c-2.1-1.1-4.7-0.3-5.8,1.7c-0.1,0.2-0.2,0.3-0.2,0.5c-0.6,0-1.3,0.1-1.9,0.4c-0.3-0.3-0.6-0.5-0.9-0.7
		c0.9-3.6-3.6-7.4-6.5-4c-6,7.3-13.7,12.8-22.5,16.2c-4.7,1.8-2.7,9.4,2.1,7.6c4.8-1.8,9.4-4.1,13.7-7c-1.7,2.7-3.3,5.6-4.8,8.5
		c-2.3,4.6,4.6,8.6,6.9,4c2-4,4.3-7.9,6.8-11.6l-2.7,8.6c-1.5,4.9,6.1,7,7.6,2.1c0.6-2,1.3-4.1,1.9-6.1c0.1,2.2,0.3,4.5,0.6,6.7
		c0.6,5,8.5,5.1,7.9,0c-0.3-2.7-0.5-5.3-0.6-8c0.7,2.6,1.4,5.3,2.3,7.9c1.6,4.8,9.2,2.8,7.6-2.1c-0.9-2.8-1.7-5.5-2.4-8.3
		c2,4,4.1,8,6.4,11.9c2.4,4.2,8.8,0.8,7.1-3.4c2.2-0.5,3.6-2.7,3.1-5c-0.1-0.3-0.1-0.5-0.3-0.8c1.8,1.8,3.4,3.7,5,5.7
		c1.3,1.7,4.2,1.4,5.6,0c1.7-1.7,1.3-3.9,0-5.6c-0.8-1-1.5-1.9-2.3-2.8c2.3,0.7,4.7,1.3,7.1,1.8
		C283.1,138.2,285.3,130.6,280.2,129.6z"></path><path class="st5" d="M262.6,116c-11.3-3.4-16.8-18.9-20.9-28.8c-1-2.2-3.6-3.2-5.8-2.3c-0.5,0.2-1,0.6-1.4,1c-1.4,0-2.6,0.8-3,2.1
		c-0.9,0.7-1.4,1.7-1.5,2.8c-0.1,1.6-0.3,3.2-0.5,4.8c-3.3,9.2-10.2,16.6-19.1,20.7c-4.6,2.2-0.6,9,4,6.8c4.4-2.1,8.5-4.9,12-8.4
		c-0.3,1.6-0.7,3.2-1,4.8c-1,4.5,5.1,6.7,7.2,3.3c1.3,3.3,7.4,2.8,7.7-1.7c0.1-1.7,0.2-3.5,0.3-5.2c0.8,2.3,1.5,4.6,2.3,6.9
		c1.7,4.8,9.3,2.7,7.6-2.1c-0.5-1.5-1-3-1.5-4.4c3.1,3.3,7,5.8,11.4,7.2C265.4,125.1,267.5,117.4,262.6,116z"></path><path class="st6" d="M258.5,104.3c-9.1-6.2-15.5-15.6-18.1-26.3c-0.4-1.9-2.3-3.2-4.3-2.8c-0.1,0-0.1,0-0.2,0
		c-2.5-0.4-4.8,1.3-5.1,3.8c0,0,0,0,0,0.1c-0.1,0.3-0.2,0.7-0.2,1c-0.9,10-7.8,17.8-14.1,25c-3.4,3.8,2.2,9.4,5.6,5.6
		c3-3.3,5.8-6.8,8.4-10.4c-0.3,2.7-0.6,5.4-1,8.1c-0.5,4.3,5.2,4.9,7.3,1.8c1.4,4.7,8.9,2.6,7.6-2.3c-0.7-2.7-1.3-5.4-2-8.2
		c3.4,4.4,7.5,8.2,12.1,11.3C258.8,114,262.7,107.2,258.5,104.3z"></path><path class="st3" d="M250.5,102.7c-5.8-4.1-8.2-11.2-10.3-17.7c-0.6-1.8-2.6-2.7-4.4-2.1c-0.5,0.2-1,0.5-1.4,0.9
		c-1.6-0.5-3.3,0.4-3.8,2.1c0,0,0,0.1,0,0.1c-1.7,6.2-5,11.8-9.8,16.1c-3.1,2.9,1.6,7.6,4.7,4.7c1.9-1.7,3.6-3.7,5.2-5.8l-0.5,5.8
		c-0.4,4.2,6.2,4.2,6.6,0l0.1-0.6c1.4,3,6.1,1.9,6.3-1.3c1.2,1.3,2.6,2.6,4.1,3.6C250.6,110.9,253.9,105.2,250.5,102.7z"></path><path class="st3" d="M277.2,134.5c-7-4.7-13.8-9.8-20.3-15.2l-3.4-3.8c-0.7-0.9-1.9-1.3-3-0.9c-1.7-2.3-5.1-0.8-5.7,1.6
		c-0.8-0.4-1.6-0.5-2.5-0.3c-1.1-2.9-5.6-3-6.3-0.2c-1.7-1-3.9-0.4-4.9,1.3c-0.1,0.1-0.1,0.3-0.2,0.4c-1.2-0.1-2.4,0.5-3.1,1.6
		c-0.6-2.8-4.6-4.4-6-1.3c-2.9,6.7-6.2,14.5-13.9,16.5c-4.1,1-2.4,7.4,1.8,6.4c5.9-1.5,9.9-5.3,13-10c-1.9,3.7-4.1,7.3-6.6,10.8
		c-2.4,3.5,3.3,6.8,5.7,3.3c3.1-4.4,5.8-9.1,8.2-14c-0.2,3.4-0.4,6.8-0.6,10.2c-0.2,4.2,6.4,4.2,6.6,0c0.3-4.8,0.5-9.5,0.8-14.3
		c0.6,5.3,1.4,10.5,2.4,15.7c0.8,4.2,7.2,2.4,6.4-1.8c-0.6-3.4-1.2-6.8-1.7-10.2c1.4,3.2,3,6.3,4.8,9.4c1.1,2,4.7,2.4,5.7,0l0.6-1.4
		c0.3-0.6,0.3-1.3,0.2-1.9c0.6,0.9,1.1,1.8,1.7,2.6c2.4,3.5,8.1,0.2,5.7-3.3l-0.2-0.4l3.1,3.4c1.7,1.9,4,1,5.1-0.7
		c1.1,0.8,2.2,1.5,3.3,2.2C277.4,142.6,280.7,136.9,277.2,134.5z M252.9,133.5c-0.9-1.7-1.7-3.4-2.5-5.1c1.1,1.9,2.2,3.7,3.3,5.6
		C253.5,133.8,253.2,133.6,252.9,133.5L252.9,133.5z"></path><path class="st3" d="M206.7,147.9c-2.3,4.3-4,8.8-5.2,13.4c-1.1,4.1,5.3,5.9,6.4,1.8c1-4.1,2.6-8.1,4.5-11.8
		C214.4,147.5,208.7,144.1,206.7,147.9z"></path><path class="st3" d="M274.7,159.6c-2.1-4.1-4.1-8.3-6.2-12.4c-1.9-3.8-7.6-0.5-5.7,3.3l2.5,5c-0.7,0.1-1.4,0.4-1.9,0.9
		c-0.1-0.1-0.2-0.2-0.2-0.4c-1.3-2-2.4-4.1-3.1-6.4c-0.6-1.8-2.5-2.7-4.2-2.2c-0.2,0.1-0.4,0.2-0.6,0.3c-1.2-1.6-3.7-1.2-5,0.3
		c-1.4-0.5-2.9,0-3.7,1.2c-0.8-0.3-1.8-0.4-2.6-0.1c-1-3.2-6-1.9-6.3,1.5c-1.4-0.4-2.9,0.4-3.5,1.7c-0.3-0.3-0.7-0.6-1.1-0.8
		c-0.4-3.4-5.5-3.5-6.4-0.3c-0.8-2.6-5-3.4-6.2-0.4c-0.6-2.6-4.4-4-6-1c-2.5,4.7-4.5,9.5-6.1,14.6c-1.1,3.6,4.1,5.7,6,2.6l4.5-7.5
		c-0.3,3.1-0.4,6.2-0.2,9.2c0.2,3,4.6,4.8,6.2,1.7c0.9-1.8,1.7-3.7,2.4-5.7c0.2,1.1,0.4,2.2,0.6,3.4c0.7,3.2,5.7,3.1,6.4,0
		c0.4-1.9,0.7-3.8,0.9-5.7c0.4,2.1,0.8,4.2,1.2,6.2c0.5,1.8,2.3,2.8,4.1,2.3c0.3-0.1,0.5-0.2,0.8-0.3c1.5-1.1,2.7-2.7,3.2-4.5
		c0.5,1.7,1,3.4,1.7,5.1c1,2.7,5.8,3.5,6.4,0c0.5-2.7,0.7-5.5,0.8-8.3c0.7,1.5,1.5,2.9,2.4,4.4c0.9,1.5,2.9,2.1,4.5,1.2
		c1-0.5,1.8-1.3,2.3-2.3c0.1-0.2,0.3-0.5,0.4-0.7l0.3,0.2c1.9,1.6,4.5,2.3,6.3,0.1c0.4-0.4,0.6-1,0.7-1.5
		C272.5,165.7,276.3,162.8,274.7,159.6z"></path></g><g id="tree1"><path class="st4" d="M83.3,255.3c0,0-10.3,6.3-6.3,11.7s15.7,1,21.4,5.4s11.4,2.2,20.7,0s7.1-0.8,20.8-3.3s29.1-8.5,28.8-15.3
		s-24-12.9-30.5-12.9"></path><path class="st5" d="M148.7,252.5c-5.9-6.9-11.1-14.4-15.5-22.3c-1.9-3.4-6.9-0.8-6,2.5c-0.7,0.1-1.4,0.4-2,0.9
		c-1.1-1-2.7-1.3-4-0.6c-0.2-1.9-2-3.3-3.9-3c-0.4,0-0.8,0.2-1.1,0.3c-0.5-0.2-1-0.4-1.5-0.4c-1.1-1.4-3.1-1.8-4.6-0.8
		c-1.8-1.1-4.3-0.8-4.7,1.8l-0.1,0.5c0.3-3.3-4.6-4.7-6.1-1.8c-0.1,0-0.1-0.1-0.2-0.1c-1.1-2-4.3-2.8-5.8-0.2
		c-4.5,7.9-9.6,15.4-15.3,22.5c-2.6,3.3,2,7.9,4.7,4.7c1.3-1.6,2.5-3.2,3.8-4.9l-3,6.8c-1.7,3.8,4,7.2,5.7,3.3
		c1.6-3.7,3.2-7.3,4.8-11c-1,4-2.3,8.6-1.6,12.5c0.4,1.4,1.7,2.4,3.2,2.4h0.4c0.5-0.1,1-0.2,1.5-0.4c1.5,1.7,4.7,1.8,5.7-0.9
		c1.8,0.8,3.9,0,4.7-1.9c0.1-0.3,0.2-0.7,0.3-1c0.1-0.8,0.2-1.6,0.3-2.4c0,2.3,0,4.5,0,6.8c0,3.9,5.6,4.2,6.4,0.9
		c0.9-0.1,1.7-0.5,2.2-1.2c0.3,0.7,0.7,1.3,1.2,1.8c1.2,1.1,3.5,1.5,4.7,0c0.1-0.1,0.2-0.2,0.2-0.3c0,0,0.1-0.1,0.1-0.1
		c1.8,0.9,4,0.1,4.8-1.7c0.3-0.6,0.4-1.3,0.3-2l-0.2-1.5c0.1,0.5,0.3,0.9,0.4,1.4c1.3,4,7.6,2.3,6.3-1.8l-0.1-0.4
		c2.1,0.2,4.4-1.4,3.5-4V257c0.8,1.2,1.5,2.4,2.3,3.5c2.1,3.1,7,0.8,6.1-2.3c1.9-0.3,3.2-2.1,2.9-4.1
		C149.3,253.5,149.1,253,148.7,252.5z"></path><path class="st6" d="M148.6,229c-8.6-1.6-16.4-5.6-22.7-11.7c-2.1-2-4.9-0.5-5.5,1.6c-1.3-0.9-3.1-0.7-4.1,0.5
		c-1.2-0.3-2.5,0-3.4,0.8c-1.7-0.9-3.9-0.3-4.8,1.4c-0.1,0.1-0.1,0.3-0.2,0.4c-0.5,0-1.1,0.1-1.5,0.3c-0.2-0.2-0.5-0.4-0.8-0.6
		c0.8-3-3-6.1-5.3-3.3c-4.9,6-11.4,10.6-18.7,13.4c-3.9,1.5-2.2,7.8,1.8,6.3c4-1.5,7.8-3.4,11.3-5.8c-1.4,2.3-2.8,4.6-4,7
		c-1.9,3.8,3.8,7.1,5.7,3.3c1.7-3.3,3.5-6.5,5.6-9.6c-0.7,2.4-1.5,4.7-2.2,7.1c-1.3,4,5.1,5.8,6.3,1.7l1.6-5.1
		c0.1,1.9,0.3,3.7,0.5,5.6c0.5,4.1,7.1,4.2,6.6,0c-0.2-2.2-0.4-4.4-0.5-6.6c0.6,2.2,1.2,4.4,1.9,6.6c1.3,4,7.6,2.3,6.3-1.8
		c-0.7-2.3-1.4-4.6-2-6.9c1.7,3.3,3.5,6.6,5.3,9.8c2,3.5,7.3,0.6,5.9-2.8c1.8-0.4,3-2.3,2.6-4.1c-0.1-0.2-0.1-0.4-0.2-0.6
		c1.5,1.5,2.8,3.1,4.1,4.8c1.1,1.4,3.5,1.1,4.6,0c1.4-1.4,1.1-3.3,0-4.6c-0.6-0.8-1.3-1.6-1.9-2.3c1.9,0.6,3.9,1.1,5.8,1.5
		C150.9,236.1,152.7,229.8,148.6,229z"></path><path class="st5" d="M133.9,217.7c-9.3-2.8-13.9-15.6-17.3-23.8c-0.8-1.9-3-2.7-4.8-1.9c-0.4,0.2-0.8,0.5-1.2,0.8
		c-1.1,0-2.1,0.7-2.4,1.7c-0.7,0.6-1.2,1.4-1.2,2.4c-0.1,1.3-0.3,2.6-0.4,4c-2.8,7.6-8.5,13.8-15.8,17.1c-3.8,1.8-0.5,7.4,3.3,5.7
		c3.7-1.7,7.1-4.1,10-6.9c-0.3,1.3-0.6,2.7-0.9,4c-0.9,3.7,4.3,5.5,5.9,2.7c1,2.8,6.1,2.3,6.4-1.4c0.1-1.4,0.2-2.9,0.3-4.3
		c0.6,1.9,1.3,3.8,1.9,5.7c1.4,4,7.7,2.3,6.3-1.7c-0.4-1.2-0.8-2.5-1.2-3.7c2.6,2.8,5.8,4.8,9.4,5.9
		C136.2,225.2,138,218.9,133.9,217.7z"></path><path class="st6" d="M130.6,208c-7.5-5.2-12.9-12.9-15-21.8c-0.4-1.6-2-2.6-3.6-2.3c0,0-0.1,0-0.1,0c-2-0.3-4,1.1-4.3,3.1
		c0,0,0,0,0,0c-0.1,0.3-0.2,0.6-0.2,0.9c-0.8,8.2-6.4,14.8-11.7,20.7c-2.8,3.2,1.8,7.8,4.7,4.6c2.5-2.7,4.8-5.6,7-8.6l-0.8,6.7
		c-0.4,3.6,4.3,4.1,6,1.5c1.2,3.9,7.3,2.2,6.3-1.9c-0.6-2.3-1.1-4.5-1.6-6.8c2.8,3.6,6.2,6.8,10,9.4
		C130.8,216.1,134,210.4,130.6,208z"></path><path class="st3" d="M123.9,206.7c-4.8-3.4-6.8-9.3-8.5-14.7c-0.5-1.5-2.2-2.3-3.7-1.7c-0.4,0.2-0.8,0.4-1.1,0.7
		c-1.3-0.4-2.8,0.4-3.2,1.7c0,0,0,0.1,0,0.1c-1.4,5.1-4.2,9.7-8.1,13.3c-2.6,2.4,1.3,6.3,3.9,3.9c1.6-1.5,3-3.1,4.3-4.8L107,210
		c-0.3,3.5,5.2,3.5,5.5,0c0-0.2,0-0.4,0-0.5c1.2,2.5,5.1,1.5,5.2-1c1,1.1,2.2,2.1,3.4,3C124,213.5,126.7,208.8,123.9,206.7z"></path><path class="st3" d="M146,233.1c-5.8-3.9-11.4-8.1-16.8-12.6c-0.9-1-1.9-2.1-2.8-3.1c-0.6-0.7-1.6-1-2.5-0.8
		c-1.4-1.9-4.2-0.7-4.7,1.4c-0.6-0.3-1.4-0.4-2.1-0.3c-0.9-2.4-4.6-2.4-5.2-0.1c-1.4-0.8-3.2-0.3-4,1c-0.1,0.1-0.1,0.2-0.2,0.4
		c-1-0.1-2,0.4-2.6,1.3c-0.5-2.3-3.8-3.7-4.9-1.1c-2.4,5.5-5.1,12-11.6,13.6c-3.4,0.9-2,6.1,1.5,5.3c4.9-1.2,8.2-4.4,10.8-8.3
		c-1.6,3.1-3.4,6.1-5.4,8.9c-2,2.9,2.7,5.6,4.7,2.8c2.6-3.7,4.9-7.5,6.8-11.6c-0.2,2.8-0.3,5.6-0.5,8.4c-0.2,3.5,5.3,3.5,5.5,0
		c0.2-4,0.5-7.9,0.7-11.9c0.5,4.4,1.2,8.7,2,13.1c0.7,3.5,5.9,2,5.3-1.5c-0.5-2.8-1-5.6-1.4-8.4c1.2,2.7,2.5,5.2,3.9,7.8
		c0.9,1.6,3.9,1.9,4.7,0l0.5-1.2c0.2-0.5,0.3-1.1,0.2-1.6c0.5,0.7,0.9,1.5,1.4,2.2c1.9,2.9,6.7,0.2,4.7-2.8l-0.2-0.3l2.5,2.8
		c0.9,1,2.5,1.1,3.6,0.2c0.3-0.2,0.5-0.5,0.6-0.8c0.9,0.6,1.8,1.2,2.7,1.9C146.2,239.8,149,235,146,233.1z M125.9,232.2
		c-0.7-1.4-1.4-2.8-2.1-4.2c0.9,1.6,1.8,3.1,2.8,4.6C126.3,232.4,126.1,232.3,125.9,232.2L125.9,232.2z"></path><path class="st3" d="M87.7,244.1c-1.9,3.5-3.3,7.3-4.3,11.1c-0.9,3.4,4.4,4.9,5.3,1.4c0.9-3.4,2.1-6.7,3.8-9.8
		C94,243.8,89.3,241,87.7,244.1z"></path><path class="st3" d="M144,253.8l-5.1-10.3c-1.6-3.2-6.3-0.4-4.7,2.8l2.1,4.1c-0.6,0.1-1.1,0.4-1.6,0.8l-0.2-0.3
		c-1.1-1.6-2-3.4-2.6-5.3c-0.5-1.5-2-2.3-3.5-1.8c-0.2,0.1-0.4,0.1-0.5,0.2c-1-1.3-3.1-1-4.2,0.2c-1.1-0.4-2.4,0-3.1,1
		c-0.7-0.3-1.5-0.3-2.2-0.1c-0.8-2.7-5-1.6-5.2,1.2c-1.2-0.3-2.4,0.3-2.9,1.4c-0.3-0.3-0.6-0.5-0.9-0.6c-0.3-2.8-4.6-2.9-5.3-0.2
		c-0.7-2.2-4.2-2.8-5.1-0.4c-0.5-2.1-3.7-3.3-5-0.9c-2,3.9-3.7,7.9-5,12c-1,3,3.4,4.7,5,2.1l3.7-6.2c-0.3,2.5-0.3,5.1-0.1,7.7
		c0.2,2.5,3.8,4,5.1,1.4c0.8-1.5,1.4-3.1,2-4.7c0.2,0.9,0.3,1.9,0.5,2.8c0.5,2.6,4.7,2.6,5.3,0c0.4-1.6,0.6-3.2,0.8-4.8
		c0.3,1.7,0.6,3.4,1,5.1c0.4,1.5,2,2.3,3.4,1.9c0.2-0.1,0.4-0.1,0.6-0.2c1.3-0.9,2.2-2.2,2.6-3.7c0.4,1.4,0.9,2.8,1.4,4.2
		c0.8,2.3,4.8,2.9,5.3,0c0.4-2.3,0.6-4.6,0.7-6.9c0.6,1.2,1.3,2.4,2,3.6c0.8,1.3,2.4,1.7,3.8,1c0.8-0.4,1.5-1.1,1.9-1.9
		c0.1-0.2,0.2-0.4,0.3-0.6l0.2,0.2c1.6,1.3,3.8,1.9,5.2,0c0.3-0.4,0.5-0.8,0.6-1.2c1.4,0.7,3.1,0,3.8-1.4
		C144.4,255.5,144.4,254.6,144,253.8z"></path></g><g id="snowman"><path class="st4" d="M258,294c0,0,53.8-19.6,36.5-45.6s-60.2-9.2-73.3,10.2"></path><circle class="st7" cx="242.7" cy="255.7" r="41.3"></circle><path class="st8" d="M254,216c11.4,11.9,17.9,29.5,14.6,45.3c-4.8,22.9-25.3,33.5-45.1,31c20.2,10.6,45.2,2.9,55.8-17.3
		s2.9-45.2-17.3-55.8C259.5,217.9,256.8,216.8,254,216z"></path><circle class="st7" cx="242.5" cy="206.8" r="31.6"></circle><path class="st8" d="M251.2,176.4c0.6,0.6,1.2,1.3,1.8,1.9c7.6,5.5,12.7,13.9,12.9,25.7c0.2,10.9-2.9,22.7-12,29.4
		c-3.4,2.5-7.4,4.2-11.5,4.9l0,0c17.5,0,31.6-14.1,31.7-31.6C274,192.7,264.6,180.3,251.2,176.4L251.2,176.4z"></path><path class="st0" d="M248.7,174.3c0,0-6.5-13.5-8.9-12.9c-5.4,1.4-10.7,3.5-15.6,6.3l3.6,15.4C227.8,183.1,241.6,186.6,248.7,174.3
		z"></path><circle class="st5" cx="265.2" cy="200.2" r="3.1"></circle><circle class="st5" cx="239.6" cy="202.2" r="3.1"></circle><path class="st9" d="M253.2,205.3c0,0,12.7,3.5,12.1,6.6s-14.2,0-14.2,0S249.1,206.5,253.2,205.3z"></path><path class="st5" d="M251.9,216c-1,1.3-2.4,2.5-4.2,2.4c-1.5,0-2.8-1.3-2.8-2.8c-0.1-0.7-0.7-1.3-1.4-1.2c-0.6,0.1-1.2,0.6-1.2,1.2
		c0,2.5,1.7,4.7,4.2,5.3c2.9,0.7,5.7-0.9,7.4-3.1C254.8,216.6,253,214.7,251.9,216z"></path><path class="st5" d="M251.6,243c-0.7,0-1.3,0.6-1.3,1.3c0,0.7,0.6,1.3,1.3,1.3c0.7,0,1.3-0.6,1.3-1.3
		C252.9,243.6,252.3,243,251.6,243z"></path><path class="st5" d="M252.7,250.5c-0.7,0-1.3,0.6-1.3,1.3c0,0.7,0.6,1.3,1.3,1.3c0.7,0,1.3-0.6,1.3-1.3
		C254,251.1,253.4,250.5,252.7,250.5z"></path><path class="st5" d="M253.3,257.9c-0.7,0-1.3,0.6-1.3,1.3s0.6,1.3,1.3,1.3l0,0c0.7,0,1.3-0.6,1.3-1.3S254,257.9,253.3,257.9z"></path><path class="st5" d="M215.3,231.5L191,215.7c-0.8-2.2-1.5-4.4-2.1-6.7c-0.2-0.7-0.9-1.1-1.6-0.9s-1.1,0.9-0.9,1.6
		c0.4,1.7,1,3.4,1.5,5.1c-0.1,0.1-0.1,0.2-0.2,0.2l-4.5-0.7c-1.7-0.2-2.4,2.3-0.7,2.6l7.1,1.1h0.1l24.3,15.7
		C215.4,234.7,216.7,232.4,215.3,231.5z"></path><path class="st5" d="M287.6,195.8c-0.8,1.2-1.8,2.4-2.8,3.4l-2.1-3.4c-0.9-1.4-3.2-0.1-2.3,1.3s1.8,2.9,2.7,4.3
		c-0.1,0.1-0.1,0.2-0.2,0.3c-2.2,9.5-5,18.8-8.4,28c-0.6,1.6,2,2.3,2.5,0.7c3.4-9.2,6.2-18.5,8.4-28.1c0-0.1,0-0.3,0-0.4
		c1.7-1.5,3.2-3.1,4.4-5C290.9,195.8,288.6,194.4,287.6,195.8z"></path></g><g id="snow"><path class="st7" d="M239,117c-2.5,0-4.6,2.1-4.6,4.6v0.7c0,2.6,2.1,4.6,4.6,4.6c2.6,0,4.6-2.1,4.6-4.6v-0.7
		C243.6,119.1,241.5,117,239,117z"></path><path class="st7" d="M246.7,131.6c-5.9,0-6,9.2,0,9.2S252.7,131.6,246.7,131.6z"></path><path class="st7" d="M135.8,243.2c-2.5,0-4.6,2.1-4.6,4.6v0.7c-0.1,2.6,1.9,4.7,4.4,4.8s4.7-1.9,4.8-4.4c0-0.1,0-0.3,0-0.4v-0.7
		C140.4,245.3,138.4,243.2,135.8,243.2z"></path><path class="st7" d="M314.4,161.4c-0.7,0-1.3,0.6-1.3,1.3c0,0.7,0.6,1.3,1.3,1.3c0.7,0,1.3-0.6,1.3-1.3
		C315.7,162,315.1,161.4,314.4,161.4z"></path><path class="st7" d="M139.3,300.2c-0.7,0-1.3,0.6-1.3,1.3s0.6,1.3,1.3,1.3s1.3-0.6,1.3-1.3S140,300.2,139.3,300.2z"></path><path class="st7" d="M405,229.3c-6,0-6,9.2,0,9.2S411,229.3,405,229.3z"></path><path class="st7" d="M384.8,290c-6,0-6,9.2,0,9.2S390.8,290,384.8,290z"></path><path class="st7" d="M330.4,301.1c-6,0-6,9.2,0,9.2S336.4,301.1,330.4,301.1z"></path><path class="st7" d="M212.5,311.6c-6,0-6,9.2,0,9.2S218.5,311.6,212.5,311.6z"></path><path class="st7" d="M166.5,218.8c-6,0-6,9.2,0,9.2S172.5,218.8,166.5,218.8z"></path><path class="st7" d="M321.3,195.1c-2.5,0-4.6,2.1-4.6,4.6v0.7c-0.1,2.6,1.9,4.7,4.4,4.8s4.7-1.9,4.8-4.4c0-0.1,0-0.3,0-0.4v-0.7
		C325.9,197.2,323.9,195.1,321.3,195.1z"></path><path class="st7" d="M160.9,176.3c-6,0-6,9.3,0,9.3S166.9,176.3,160.9,176.3z"></path><path class="st7" d="M433.6,246.5c-0.7,0.1-1.3,0.7-1.2,1.4c0.1,0.6,0.6,1.2,1.2,1.2c0.7-0.1,1.3-0.7,1.2-1.4
		C434.8,247.1,434.3,246.6,433.6,246.5z"></path><path class="st7" d="M395.3,268.1c-0.7,0.1-1.3,0.7-1.2,1.4c0.1,0.6,0.6,1.2,1.2,1.2c0.7-0.1,1.3-0.7,1.2-1.4
		C396.4,268.7,395.9,268.2,395.3,268.1z"></path><path class="st7" d="M330.4,333c-0.7,0-1.3,0.6-1.3,1.3s0.6,1.3,1.3,1.3s1.3-0.6,1.3-1.3S331.1,333,330.4,333L330.4,333z"></path><path class="st7" d="M262.8,351.8v0.7c0.1,0.7,0.7,1.3,1.4,1.2c0.6-0.1,1.2-0.6,1.2-1.2v-0.7c-0.1-0.7-0.7-1.3-1.4-1.2
		C263.4,350.6,262.9,351.1,262.8,351.8z"></path><path class="st7" d="M324.9,240.9v4.2c0,0.7,0.6,1.3,1.3,1.3s1.3-0.6,1.3-1.3l0,0v-4.2c0-0.7-0.6-1.3-1.3-1.3
		S324.9,240.1,324.9,240.9z"></path><path class="st7" d="M90.5,160.7c-0.7,0-1.3,0.6-1.3,1.3c0,0.7,0.6,1.3,1.3,1.3c0.7,0,1.3-0.6,1.3-1.3
		C91.8,161.3,91.2,160.7,90.5,160.7z"></path><path class="st7" d="M141.4,122.4h-0.7c-0.7,0-1.3,0.6-1.3,1.3c0,0.7,0.6,1.3,1.3,1.3h0.7c0.7,0,1.3-0.6,1.3-1.3
		C142.7,123,142.1,122.4,141.4,122.4z"></path></g></svg>